<svg width="526" height="236" viewBox="0 0 526 236" fill="none" xmlns="http://www.w3.org/2000/svg">
<g opacity="0.3" clip-path="url(#clip0_8746_51914)">
<path d="M168.845 189.251H144.854V231.316H86.6859V189.251H0V146.281L90.5336 13.9785H144.854V145.376H168.845V189.251ZM86.6859 145.376V120.046C86.6859 115.297 86.9122 108.965 87.1385 100.823C87.5912 92.6813 87.8176 88.6105 88.0439 88.1582H86.4596C83.0645 95.8475 79.2169 102.858 74.9165 109.643L50.9251 145.376H86.6859Z" fill="#F2F4F7"/>
<path d="M341.312 122.987C341.312 161.433 334.748 189.703 322.073 207.569C309.172 225.436 289.481 234.482 262.774 234.482C236.745 234.482 217.281 225.21 203.927 206.439C190.8 187.668 184.236 159.85 184.236 122.987C184.236 84.3137 190.573 56.044 203.701 37.9514C216.602 19.8588 236.293 10.8125 263 10.8125C288.802 10.8125 308.493 20.3111 321.621 39.0822C334.748 57.8532 341.312 85.6706 341.312 122.987ZM242.63 122.987C242.63 147.638 244.214 164.6 247.157 173.646C250.325 182.918 255.305 187.441 262.547 187.441C269.79 187.441 274.996 182.692 278.164 173.194C281.107 163.695 282.691 146.959 282.691 122.987C282.691 98.7877 281.107 82.0521 278.164 72.3273C274.996 62.6026 270.016 57.8532 262.774 57.8532C255.531 57.8532 250.325 62.6026 247.383 71.875C244.214 81.1475 242.63 98.1093 242.63 122.987Z" fill="#F2F4F7"/>
<path d="M526 189.251H502.009V231.316H443.841V189.251H357.155V146.281L447.688 13.9785H502.009V145.376H526V189.251ZM444.067 145.376V120.046C444.067 115.297 444.293 108.965 444.52 100.823C444.972 92.6813 445.199 88.6105 445.425 88.1582H443.841C440.446 95.8475 436.598 102.858 432.298 109.643L408.08 145.602H444.067V145.376Z" fill="#F2F4F7"/>
</g>
<path d="M279.457 69.4023C280.494 75.3714 281.531 81.3404 282.568 87.3095C279.25 90.294 271.576 93.5273 263.902 93.5273C256.021 93.5273 247.31 90.294 243.992 87.3095C245.236 81.5892 246.688 75.8688 247.932 69.8998" stroke="#D0D5DD" stroke-width="3" stroke-miterlimit="10"/>
<path d="M280.909 86.0625C292.109 93.7725 299.575 108.446 299.575 125.11V162.665L296.464 169.629H243.992" stroke="#D0D5DD" stroke-width="3" stroke-miterlimit="10"/>
<path d="M255.192 59.9492C256.021 64.1773 259.34 67.4105 263.28 67.4105C267.221 67.4105 270.332 64.1773 271.369 59.9492" stroke="#D0D5DD" stroke-width="3" stroke-miterlimit="10"/>
<path d="M296.05 168.635V170.624C296.05 177.34 293.768 183.806 289.828 188.78H286.094" stroke="#D0D5DD" stroke-width="3" stroke-miterlimit="10"/>
<path d="M281.324 140.53H229.266L226.155 126.851C225.74 125.359 225.74 123.867 225.74 122.623C226.363 106.954 233.829 93.5238 244.407 86.0625" stroke="#D0D5DD" stroke-width="3" stroke-miterlimit="10"/>
<path d="M284.435 127.348H286.924C291.694 127.348 296.879 137.296 296.879 137.296V140.529H281.324" stroke="#D0D5DD" stroke-width="3" stroke-miterlimit="10"/>
<path d="M245.236 174.854C245.443 172.616 245.443 170.128 245.236 167.393C245.029 164.657 244.614 162.17 244.199 159.931C243.162 153.714 241.918 147.247 240.881 141.029" stroke="#D0D5DD" stroke-width="3" stroke-miterlimit="10"/>
<path d="M289.62 142.521L286.094 163.662C285.679 166.398 285.472 168.885 285.472 171.621" stroke="#D0D5DD" stroke-width="3" stroke-miterlimit="10"/>
<path d="M282.361 87.5586V139.788" stroke="#D0D5DD" stroke-width="3" stroke-miterlimit="10"/>
<path d="M269.295 109.943H228.229" stroke="#D0D5DD" stroke-width="3" stroke-miterlimit="10"/>
<path d="M284.85 168.637V219.872H278.628V233.551H263.073V226.09C263.695 225.095 264.318 223.851 265.562 222.608C267.014 221.115 268.258 220.121 269.295 219.623C269.088 203.208 268.88 186.793 268.88 170.378H264.11L259.962 220.121H253.74V233.8H230.304L230.511 229.323C231.548 225.592 234.452 223.851 237.77 223.851H245.029C245.029 205.198 245.029 186.296 245.029 167.643" stroke="#D0D5DD" stroke-width="3" stroke-miterlimit="10"/>
<path d="M238.6 46.7679V31.8453C238.6 15.4304 249.799 2 263.488 2C277.176 2 288.376 15.4304 288.376 31.8453V46.7679" stroke="#D0D5DD" stroke-width="3" stroke-miterlimit="10"/>
<path d="M288.376 46.7656C288.376 63.1805 277.176 76.6109 263.488 76.6109C249.799 76.6109 238.6 63.1805 238.6 46.7656" stroke="#D0D5DD" stroke-width="3" stroke-miterlimit="10"/>
<path d="M237.769 46.767L277.798 7.4707" stroke="#D0D5DD" stroke-width="3" stroke-miterlimit="10"/>
<path d="M242.333 63.68L286.924 19.6582" stroke="#D0D5DD" stroke-width="3" stroke-miterlimit="10"/>
<path d="M243.162 16.4258H268.673" stroke="#D0D5DD" stroke-width="3" stroke-miterlimit="10"/>
<path d="M271.369 34.8301H288.375" stroke="#D0D5DD" stroke-width="3" stroke-miterlimit="10"/>
<path d="M239.637 34.8301H250.214" stroke="#D0D5DD" stroke-width="3" stroke-miterlimit="10"/>
<path d="M253.533 51.9902H288.376" stroke="#D0D5DD" stroke-width="3" stroke-miterlimit="10"/>
<path d="M241.711 111.186V139.787" stroke="#D0D5DD" stroke-width="3" stroke-miterlimit="10"/>
<path d="M256.021 111.186V139.787" stroke="#D0D5DD" stroke-width="3" stroke-miterlimit="10"/>
<path d="M268.673 94.5195V139.785" stroke="#D0D5DD" stroke-width="3" stroke-miterlimit="10"/>
<path d="M242.333 154.709H287.546" stroke="#D0D5DD" stroke-width="3" stroke-miterlimit="10"/>
<path d="M283.398 101.236H294.805" stroke="#D0D5DD" stroke-width="3" stroke-miterlimit="10"/>
<path d="M231.341 101.236H268.88" stroke="#D0D5DD" stroke-width="3" stroke-miterlimit="10"/>
<path d="M283.398 117.154H298.953" stroke="#D0D5DD" stroke-width="3" stroke-miterlimit="10"/>
<path d="M245.236 186.293H262.865" stroke="#D0D5DD" stroke-width="3" stroke-miterlimit="10"/>
<path d="M245.236 203.951H260.791" stroke="#D0D5DD" stroke-width="3" stroke-miterlimit="10"/>
<path d="M245.236 219.623H260.791" stroke="#D0D5DD" stroke-width="3" stroke-miterlimit="10"/>
<path d="M267.843 186.293H285.472" stroke="#D0D5DD" stroke-width="3" stroke-miterlimit="10"/>
<path d="M267.843 203.951H283.398" stroke="#D0D5DD" stroke-width="3" stroke-miterlimit="10"/>
<path d="M267.843 219.623H283.398" stroke="#D0D5DD" stroke-width="3" stroke-miterlimit="10"/>
<defs>
<clipPath id="clip0_8746_51914">
<rect width="526" height="223.67" fill="white" transform="translate(0 10.8125)"/>
</clipPath>
</defs>
</svg>
