<svg width="128" height="152" viewBox="0 0 128 152" fill="none" xmlns="http://www.w3.org/2000/svg">
<circle cx="64" cy="80" r="64" fill="#F5F5F5"/>
<mask id="mask0_7009_17339" style="mask-type:alpha" maskUnits="userSpaceOnUse" x="0" y="1" width="128" height="143">
<path d="M0 1H128V80C128 115.346 99.3462 144 64 144C28.6538 144 0 115.346 0 80V1Z" fill="#C4C4C4"/>
</mask>
<g mask="url(#mask0_7009_17339)">
<path d="M39.8027 58.0426L55.7186 58L55.7613 72.1772H39.8454L39.8027 58.0426Z" fill="#008F69"/>
<path d="M35.0283 58.0673L47.7752 58.0247L47.8037 72.1876L35.071 72.1734L35.0283 58.0673Z" fill="#00B785"/>
<path opacity="0.4" d="M47.7754 58.0267L35 58.0694L35.0142 62.5583L47.8038 72.1897L47.7754 58.0267Z" fill="#00B785"/>
<path d="M69.1309 101.04L84.1082 101L84.1483 114.341H69.171L69.1309 101.04Z" fill="#141414"/>
<path d="M64.6387 101.065L76.6339 101.025L76.6607 114.353L64.6788 114.34L64.6387 101.065Z" fill="#616161"/>
<path opacity="0.4" d="M76.6333 101.028L64.6113 101.068L64.6247 105.292L76.6601 114.356L76.6333 101.028Z" fill="#616161"/>
<path d="M56.4741 63.0355L67.9735 63L68.0002 73.9348H56.5007L56.4741 63.0355Z" fill="#E0AC00"/>
<path d="M53.0195 63.057L62.2297 63.0215L62.2497 73.9421L53.0461 73.935L53.0195 63.057Z" fill="#FFC200"/>
<path opacity="0.4" d="M62.2302 63.0186L53 63.054L53.0067 66.5097L62.2501 73.9392L62.2302 63.0186Z" fill="#FFC200"/>
<path d="M29.0304 28.943L19.1982 24.3716V186.912H29.0304V28.943Z" fill="#BDBDBD"/>
<path d="M102.739 30.84H28.7863L16.7231 25.597H102.739V30.84Z" fill="#BDBDBD"/>
<path d="M15.6392 24.3718V186.845H103.424V24.3718H15.6392ZM101.449 184.762H19.235V27.8853H99.828V184.762H101.449Z" fill="#E0E0E0"/>
<path d="M113.269 28.943L103.437 24.3716V186.912H113.269V28.943Z" fill="#BDBDBD"/>
<path d="M102.518 70.5698H16.5591V75.0048H102.518V70.5698Z" fill="#E0E0E0"/>
<path d="M102.518 111.31H16.5591V115.745H102.518V111.31Z" fill="#E0E0E0"/>
</g>
</svg>
